<svg xmlns="http://www.w3.org/2000/svg" xmlns:xlink="http://www.w3.org/1999/xlink" width="500" zoomAndPan="magnify" viewBox="0 0 375 374.999991" height="500" preserveAspectRatio="xMidYMid meet" version="1.0"><defs><clipPath id="d61d561823"><path d="M 148.597656 0.253906 L 214.636719 0.253906 L 214.636719 137.414062 L 148.597656 137.414062 Z M 148.597656 0.253906 " clip-rule="nonzero"/></clipPath><clipPath id="2b3c12e27c"><path d="M 215 41 L 301 41 L 301 151 L 215 151 Z M 215 41 " clip-rule="nonzero"/></clipPath><clipPath id="83b51fae99"><path d="M 273.105469 21.164062 L 325.84375 60.914062 L 243.28125 170.445312 L 190.542969 130.695312 Z M 273.105469 21.164062 " clip-rule="nonzero"/></clipPath><clipPath id="0869eea523"><path d="M 273.105469 21.164062 L 325.84375 60.914062 L 243.28125 170.445312 L 190.542969 130.695312 Z M 273.105469 21.164062 " clip-rule="nonzero"/></clipPath><clipPath id="07814f8914"><path d="M 273.105469 21.164062 L 325.84375 60.914062 L 243.28125 170.445312 L 190.542969 130.695312 Z M 273.105469 21.164062 " clip-rule="nonzero"/></clipPath><clipPath id="a238aef3c1"><path d="M 226.804688 147.480469 L 363.96875 147.480469 L 363.96875 213.519531 L 226.804688 213.519531 Z M 226.804688 147.480469 " clip-rule="nonzero"/></clipPath><clipPath id="59afad5d89"><path d="M 147.960938 225.039062 L 214 225.039062 L 214 362.199219 L 147.960938 362.199219 Z M 147.960938 225.039062 " clip-rule="nonzero"/></clipPath><clipPath id="73456ed6ca"><path d="M 216 209 L 302 209 L 302 320 L 216 320 Z M 216 209 " clip-rule="nonzero"/></clipPath><clipPath id="6970df1395"><path d="M 191.449219 229.644531 L 244.289062 190.023438 L 326.574219 299.765625 L 273.734375 339.382812 Z M 191.449219 229.644531 " clip-rule="nonzero"/></clipPath><clipPath id="3ca3ddf40d"><path d="M 191.449219 229.644531 L 244.289062 190.023438 L 326.574219 299.765625 L 273.734375 339.382812 Z M 191.449219 229.644531 " clip-rule="nonzero"/></clipPath><clipPath id="94dc2881c0"><path d="M 191.449219 229.644531 L 244.289062 190.023438 L 326.574219 299.765625 L 273.734375 339.382812 Z M 191.449219 229.644531 " clip-rule="nonzero"/></clipPath><clipPath id="f2a120e670"><path d="M 0.878906 147.480469 L 138.042969 147.480469 L 138.042969 213.519531 L 0.878906 213.519531 Z M 0.878906 147.480469 " clip-rule="nonzero"/></clipPath><clipPath id="4d04b906ce"><path d="M 47 58 L 154 58 L 154 147 L 47 147 Z M 47 58 " clip-rule="nonzero"/></clipPath><clipPath id="0c84533aea"><path d="M 174.84375 120.058594 L 133.070312 171.210938 L 26.832031 84.457031 L 68.605469 33.304688 Z M 174.84375 120.058594 " clip-rule="nonzero"/></clipPath><clipPath id="c98854fb02"><path d="M 174.84375 120.058594 L 133.070312 171.210938 L 26.832031 84.457031 L 68.605469 33.304688 Z M 174.84375 120.058594 " clip-rule="nonzero"/></clipPath><clipPath id="a240f74123"><path d="M 174.84375 120.058594 L 133.070312 171.210938 L 26.832031 84.457031 L 68.605469 33.304688 Z M 174.84375 120.058594 " clip-rule="nonzero"/></clipPath><clipPath id="a39f0a1370"><path d="M 51 211 L 147 211 L 147 311 L 51 311 Z M 51 211 " clip-rule="nonzero"/></clipPath><clipPath id="5c7d38e312"><path d="M 123.109375 188.738281 L 170.757812 234.464844 L 75.789062 333.429688 L 28.140625 287.703125 Z M 123.109375 188.738281 " clip-rule="nonzero"/></clipPath><clipPath id="efaa1c37c6"><path d="M 123.109375 188.738281 L 170.757812 234.464844 L 75.789062 333.429688 L 28.140625 287.703125 Z M 123.109375 188.738281 " clip-rule="nonzero"/></clipPath><clipPath id="c5b1769555"><path d="M 123.109375 188.738281 L 170.757812 234.464844 L 75.789062 333.429688 L 28.140625 287.703125 Z M 123.109375 188.738281 " clip-rule="nonzero"/></clipPath><clipPath id="2e09aac97f"><path d="M 154.554688 151.929688 L 210.4375 151.929688 L 210.4375 207.753906 L 154.554688 207.753906 Z M 154.554688 151.929688 " clip-rule="nonzero"/></clipPath><clipPath id="e026ea5b14"><path d="M 154.554688 180.5 C 154.554688 188.09375 157.570312 195.375 162.941406 200.742188 C 168.308594 206.109375 175.589844 209.128906 183.183594 209.128906 C 190.773438 209.128906 198.054688 206.109375 203.425781 200.742188 C 208.792969 195.375 211.808594 188.09375 211.808594 180.5 C 211.808594 172.90625 208.792969 165.625 203.425781 160.257812 C 198.054688 154.890625 190.773438 151.871094 183.183594 151.871094 C 175.589844 151.871094 168.308594 154.890625 162.941406 160.257812 C 157.570312 165.625 154.554688 172.90625 154.554688 180.5 Z M 154.554688 180.5 " clip-rule="nonzero"/></clipPath><clipPath id="fd3bec53aa"><path d="M 233 62 L 286 62 L 286 130 L 233 130 Z M 233 62 " clip-rule="nonzero"/></clipPath><clipPath id="83c0f3cec7"><path d="M 267.9375 49.597656 L 300.390625 74.0625 L 248.40625 143.027344 L 215.953125 118.5625 Z M 267.9375 49.597656 " clip-rule="nonzero"/></clipPath><clipPath id="5dc7da5bc2"><path d="M 267.9375 49.597656 L 300.390625 74.0625 L 248.40625 143.027344 L 215.953125 118.5625 Z M 267.9375 49.597656 " clip-rule="nonzero"/></clipPath><clipPath id="357a99b553"><path d="M 160 26 L 204 26 L 204 111 L 160 111 Z M 160 26 " clip-rule="nonzero"/></clipPath><clipPath id="65af1e3e6a"><path d="M 205.175781 109.0625 L 164.582031 111.03125 L 160.398438 24.769531 L 200.992188 22.800781 Z M 205.175781 109.0625 " clip-rule="nonzero"/></clipPath><clipPath id="dfc941dc87"><path d="M 205.175781 109.0625 L 164.582031 111.03125 L 160.398438 24.769531 L 200.992188 22.800781 Z M 205.175781 109.0625 " clip-rule="nonzero"/></clipPath><clipPath id="d3c478698e"><path d="M 254 159 L 339 159 L 339 202 L 254 202 Z M 254 159 " clip-rule="nonzero"/></clipPath><clipPath id="3c163f8096"><path d="M 336.851562 156.945312 L 339.242188 197.515625 L 253.03125 202.597656 L 250.640625 162.027344 Z M 336.851562 156.945312 " clip-rule="nonzero"/></clipPath><clipPath id="b6c1846d6e"><path d="M 336.851562 156.945312 L 339.242188 197.515625 L 253.03125 202.597656 L 250.640625 162.027344 Z M 336.851562 156.945312 " clip-rule="nonzero"/></clipPath><clipPath id="c63ad89ca2"><path d="M 232 226 L 284 226 L 284 296 L 232 296 Z M 232 226 " clip-rule="nonzero"/></clipPath><clipPath id="a86f2bf0fa"><path d="M 299.605469 283.617188 L 266.320312 306.933594 L 216.769531 236.199219 L 250.058594 212.882812 Z M 299.605469 283.617188 " clip-rule="nonzero"/></clipPath><clipPath id="d0c6edd720"><path d="M 299.605469 283.617188 L 266.320312 306.933594 L 216.769531 236.199219 L 250.058594 212.882812 Z M 299.605469 283.617188 " clip-rule="nonzero"/></clipPath><clipPath id="f2c4736bfc"><path d="M 160 249 L 203 249 L 203 334 L 160 334 Z M 160 249 " clip-rule="nonzero"/></clipPath><clipPath id="f395fb233b"><path d="M 201.121094 333.867188 L 160.511719 332.292969 L 163.855469 245.996094 L 204.46875 247.570312 Z M 201.121094 333.867188 " clip-rule="nonzero"/></clipPath><clipPath id="ce5bb99ad2"><path d="M 201.121094 333.867188 L 160.511719 332.292969 L 163.855469 245.996094 L 204.46875 247.570312 Z M 201.121094 333.867188 " clip-rule="nonzero"/></clipPath><clipPath id="38e9683ef5"><path d="M 71 229 L 130 229 L 130 291 L 71 291 Z M 71 229 " clip-rule="nonzero"/></clipPath><clipPath id="eb50f7522f"><path d="M 87.171875 304.839844 L 57.664062 276.894531 L 117.046875 214.1875 L 146.554688 242.132812 Z M 87.171875 304.839844 " clip-rule="nonzero"/></clipPath><clipPath id="da77b08cb6"><path d="M 87.171875 304.839844 L 57.664062 276.894531 L 117.046875 214.1875 L 146.554688 242.132812 Z M 87.171875 304.839844 " clip-rule="nonzero"/></clipPath><clipPath id="e6cce3cc3c"><path d="M 26.621094 160.96875 L 111 160.96875 L 111 201.609375 L 26.621094 201.609375 Z M 26.621094 160.96875 " clip-rule="nonzero"/></clipPath><clipPath id="dada824c1f"><path d="M 64 77 L 133 77 L 133 130 L 64 130 Z M 64 77 " clip-rule="nonzero"/></clipPath><clipPath id="a3122c34e0"><path d="M 52.324219 95.4375 L 76.585938 62.832031 L 145.871094 114.386719 L 121.609375 146.992188 Z M 52.324219 95.4375 " clip-rule="nonzero"/></clipPath><clipPath id="64a294aaac"><path d="M 52.324219 95.4375 L 76.585938 62.832031 L 145.871094 114.386719 L 121.609375 146.992188 Z M 52.324219 95.4375 " clip-rule="nonzero"/></clipPath><clipPath id="c14314d140"><rect x="0" width="364" y="0" height="363"/></clipPath></defs><g transform="matrix(1, 0, 0, 1, 11, 7)"><g clip-path="url(#c14314d140)"><g clip-path="url(#d61d561823)"><path fill="#000000" d="M 214.617188 68.851562 C 214.617188 106.730469 181.617188 137.4375 181.617188 137.4375 C 181.617188 137.4375 148.617188 106.730469 148.617188 68.851562 C 148.617188 30.96875 181.617188 0.261719 181.617188 0.261719 C 181.617188 0.261719 214.617188 30.96875 214.617188 68.851562 Z M 214.617188 68.851562 " fill-opacity="1" fill-rule="nonzero"/></g><g clip-path="url(#2b3c12e27c)"><g clip-path="url(#83b51fae99)"><g clip-path="url(#0869eea523)"><g clip-path="url(#07814f8914)"><path fill="#000000" d="M 284.535156 115.679688 C 261.734375 145.929688 216.898438 150.585938 216.898438 150.585938 C 216.898438 150.585938 209.03125 106.203125 231.832031 75.953125 C 254.632812 45.703125 299.46875 41.046875 299.46875 41.046875 C 299.46875 41.046875 307.335938 85.433594 284.535156 115.679688 Z M 284.535156 115.679688 " fill-opacity="1" fill-rule="nonzero"/></g></g></g></g><g clip-path="url(#a238aef3c1)"><path fill="#000000" d="M 295.371094 213.5 C 257.492188 213.5 226.785156 180.5 226.785156 180.5 C 226.785156 180.5 257.492188 147.5 295.371094 147.5 C 333.25 147.5 363.957031 180.5 363.957031 180.5 C 363.957031 180.5 333.25 213.5 295.371094 213.5 Z M 295.371094 213.5 " fill-opacity="1" fill-rule="nonzero"/></g><g clip-path="url(#59afad5d89)"><path fill="#000000" d="M 213.980469 293.632812 C 213.980469 331.511719 180.980469 362.21875 180.980469 362.21875 C 180.980469 362.21875 147.980469 331.511719 147.980469 293.632812 C 147.980469 255.753906 180.980469 225.046875 180.980469 225.046875 C 180.980469 225.046875 213.980469 255.753906 213.980469 293.632812 Z M 213.980469 293.632812 " fill-opacity="1" fill-rule="nonzero"/></g><g clip-path="url(#73456ed6ca)"><g clip-path="url(#6970df1395)"><g clip-path="url(#3ca3ddf40d)"><g clip-path="url(#94dc2881c0)"><path fill="#000000" d="M 285.421875 244.917969 C 308.148438 275.226562 300.167969 319.589844 300.167969 319.589844 C 300.167969 319.589844 255.34375 314.820312 232.617188 284.511719 C 209.894531 254.207031 217.875 209.839844 217.875 209.839844 C 217.875 209.839844 262.699219 214.613281 285.421875 244.917969 Z M 285.421875 244.917969 " fill-opacity="1" fill-rule="nonzero"/></g></g></g></g><g clip-path="url(#f2a120e670)"><path fill="#000000" d="M 69.445312 213.5 C 31.566406 213.5 0.859375 180.5 0.859375 180.5 C 0.859375 180.5 31.566406 147.5 69.445312 147.5 C 107.324219 147.5 138.03125 180.5 138.03125 180.5 C 138.03125 180.5 107.324219 213.5 69.445312 213.5 Z M 69.445312 213.5 " fill-opacity="1" fill-rule="nonzero"/></g><g clip-path="url(#4d04b906ce)"><g clip-path="url(#0c84533aea)"><g clip-path="url(#c98854fb02)"><g clip-path="url(#a240f74123)"><path fill="#000000" d="M 79.953125 127.808594 C 50.613281 103.851562 47.703125 58.867188 47.703125 58.867188 C 47.703125 58.867188 92.359375 52.730469 121.699219 76.6875 C 151.039062 100.648438 153.949219 145.632812 153.949219 145.632812 C 153.949219 145.632812 109.292969 151.769531 79.953125 127.808594 Z M 79.953125 127.808594 " fill-opacity="1" fill-rule="nonzero"/></g></g></g></g><g clip-path="url(#a39f0a1370)"><g clip-path="url(#5c7d38e312)"><g clip-path="url(#efaa1c37c6)"><g clip-path="url(#c5b1769555)"><path fill="#000000" d="M 123.25 283.945312 C 97.023438 311.273438 51.949219 310.582031 51.949219 310.582031 C 51.949219 310.582031 49.402344 265.578125 75.628906 238.246094 C 101.855469 210.914062 146.929688 211.609375 146.929688 211.609375 C 146.929688 211.609375 149.476562 256.613281 123.25 283.945312 Z M 123.25 283.945312 " fill-opacity="1" fill-rule="nonzero"/></g></g></g></g><g clip-path="url(#2e09aac97f)"><g clip-path="url(#e026ea5b14)"><path fill="#000000" d="M 210.378906 179.84375 C 210.378906 195.257812 197.882812 207.753906 182.46875 207.753906 C 167.050781 207.753906 154.554688 195.257812 154.554688 179.84375 C 154.554688 164.425781 167.050781 151.929688 182.46875 151.929688 C 197.882812 151.929688 210.378906 164.425781 210.378906 179.84375 Z M 210.378906 179.84375 " fill-opacity="1" fill-rule="nonzero"/></g></g><g clip-path="url(#fd3bec53aa)"><g clip-path="url(#83c0f3cec7)"><g clip-path="url(#5dc7da5bc2)"><path fill="#3baa8c" d="M 276.351562 108.585938 C 262.378906 127.125 234.191406 129.445312 234.191406 129.445312 C 234.191406 129.445312 228.660156 101.707031 242.632812 83.171875 C 256.609375 64.632812 284.796875 62.3125 284.796875 62.3125 C 284.796875 62.3125 290.328125 90.050781 276.351562 108.585938 Z M 276.351562 108.585938 " fill-opacity="1" fill-rule="nonzero"/></g></g></g><g clip-path="url(#357a99b553)"><g clip-path="url(#65af1e3e6a)"><g clip-path="url(#dfc941dc87)"><path fill="#3baa8c" d="M 160.960938 69.117188 C 159.839844 45.929688 180.015625 26.109375 180.015625 26.109375 C 180.015625 26.109375 202.011719 43.886719 203.136719 67.074219 C 204.261719 90.261719 184.085938 110.078125 184.085938 110.078125 C 184.085938 110.078125 162.085938 92.304688 160.960938 69.117188 Z M 160.960938 69.117188 " fill-opacity="1" fill-rule="nonzero"/></g></g></g><g clip-path="url(#d3c478698e)"><g clip-path="url(#3c163f8096)"><g clip-path="url(#b6c1846d6e)"><path fill="#3baa8c" d="M 297.371094 201.574219 C 274.195312 202.9375 254.167969 182.96875 254.167969 182.96875 C 254.167969 182.96875 271.710938 160.785156 294.886719 159.421875 C 318.0625 158.054688 338.089844 178.023438 338.089844 178.023438 C 338.089844 178.023438 320.542969 200.207031 297.371094 201.574219 Z M 297.371094 201.574219 " fill-opacity="1" fill-rule="nonzero"/></g></g></g><g clip-path="url(#c63ad89ca2)"><g clip-path="url(#a86f2bf0fa)"><g clip-path="url(#d0c6edd720)"><path fill="#3baa8c" d="M 240.902344 273.410156 C 227.582031 254.398438 234.078125 226.871094 234.078125 226.871094 C 234.078125 226.871094 262.164062 230.171875 275.484375 249.183594 C 288.804688 268.199219 282.308594 295.726562 282.308594 295.726562 C 282.308594 295.726562 254.21875 292.425781 240.902344 273.410156 Z M 240.902344 273.410156 " fill-opacity="1" fill-rule="nonzero"/></g></g></g><g clip-path="url(#f2c4736bfc)"><g clip-path="url(#f395fb233b)"><g clip-path="url(#ce5bb99ad2)"><path fill="#3baa8c" d="M 160.554688 290.226562 C 161.453125 267.027344 183.28125 249.042969 183.28125 249.042969 C 183.28125 249.042969 203.648438 268.664062 202.75 291.859375 C 201.851562 315.058594 180.023438 333.042969 180.023438 333.042969 C 180.023438 333.042969 159.65625 313.421875 160.554688 290.226562 Z M 160.554688 290.226562 " fill-opacity="1" fill-rule="nonzero"/></g></g></g><g clip-path="url(#38e9683ef5)"><g clip-path="url(#eb50f7522f)"><g clip-path="url(#da77b08cb6)"><path fill="#3baa8c" d="M 85.417969 245.28125 C 101.378906 228.425781 129.648438 229.277344 129.648438 229.277344 C 129.648438 229.277344 132.039062 257.457031 116.078125 274.3125 C 100.117188 291.167969 71.847656 290.316406 71.847656 290.316406 C 71.847656 290.316406 69.457031 262.136719 85.417969 245.28125 Z M 85.417969 245.28125 " fill-opacity="1" fill-rule="nonzero"/></g></g></g><g clip-path="url(#e6cce3cc3c)"><path fill="#3baa8c" d="M 68.660156 159.382812 C 91.875 159.382812 110.695312 180.496094 110.695312 180.496094 C 110.695312 180.496094 91.875 201.609375 68.660156 201.609375 C 45.445312 201.609375 26.628906 180.496094 26.628906 180.496094 C 26.628906 180.496094 45.445312 159.382812 68.660156 159.382812 Z M 68.660156 159.382812 " fill-opacity="1" fill-rule="nonzero"/></g><g clip-path="url(#dada824c1f)"><g clip-path="url(#a3122c34e0)"><g clip-path="url(#64a294aaac)"><path fill="#3baa8c" d="M 111.257812 86.65625 C 129.882812 100.515625 132.378906 128.6875 132.378906 128.6875 C 132.378906 128.6875 104.675781 134.390625 86.054688 120.53125 C 67.429688 106.675781 64.933594 78.503906 64.933594 78.503906 C 64.933594 78.503906 92.636719 72.796875 111.257812 86.65625 Z M 111.257812 86.65625 " fill-opacity="1" fill-rule="nonzero"/></g></g></g></g></g></svg>