<?xml version="1.0" standalone="no"?>
<!DOCTYPE svg PUBLIC "-//W3C//DTD SVG 20010904//EN"
 "http://www.w3.org/TR/2001/REC-SVG-20010904/DTD/svg10.dtd">
<svg version="1.0" xmlns="http://www.w3.org/2000/svg"
 width="500.000000pt" height="117.000000pt" viewBox="0 0 500.000000 117.000000"
 preserveAspectRatio="xMidYMid meet">

<g transform="translate(0.000000,117.000000) scale(0.100000,-0.100000)"
fill="#000000" stroke="none">
<path d="M2747 1098 c-64 -84 -82 -173 -52 -259 18 -51 61 -109 80 -109 18 0
73 85 86 134 20 75 -5 166 -65 240 l-23 28 -26 -34z m58 -91 c15 -27 25 -59
25 -83 0 -38 -28 -105 -46 -111 -16 -5 -55 64 -61 106 -4 29 1 52 17 85 12 25
26 46 30 46 5 0 21 -20 35 -43z"/>
<path d="M70 935 l0 -75 160 0 c88 0 160 -4 160 -9 0 -5 -73 -127 -163 -272
-90 -145 -173 -281 -186 -301 l-23 -38 331 0 331 0 0 75 0 75 -180 2 -181 3
187 300 c102 165 188 303 190 308 3 4 -137 7 -310 7 l-316 0 0 -75z"/>
<path d="M852 633 c-84 -208 -152 -381 -152 -385 0 -5 40 -8 89 -8 l88 0 30
78 29 77 148 0 148 0 28 -75 27 -75 93 -3 c85 -3 92 -1 86 15 -4 10 -73 183
-154 385 l-147 368 -80 0 -81 0 -152 -377z m277 31 c16 -44 32 -87 36 -96 6
-16 -1 -18 -79 -18 -47 0 -86 3 -86 8 0 4 15 45 33 92 18 47 37 94 41 105 9
25 15 17 55 -91z"/>
<path d="M1510 625 l0 -385 85 0 85 0 2 242 3 242 155 -242 155 -242 87 0 88
0 0 385 0 385 -90 0 -90 0 -2 -237 -3 -236 -150 236 -150 236 -87 1 -88 0 0
-385z"/>
<path d="M3239 963 c11 -26 81 -194 156 -373 75 -179 139 -331 142 -337 3 -9
28 -13 72 -13 l67 0 128 308 c71 169 144 342 162 385 l33 77 -97 0 -97 0 -95
-250 c-52 -137 -98 -250 -101 -250 -3 0 -48 111 -100 248 l-94 247 -98 3 -97
3 19 -48z"/>
<path d="M4030 625 l0 -385 85 0 85 0 0 385 0 385 -85 0 -85 0 0 -385z"/>
<path d="M4292 1002 c2 -4 54 -82 116 -172 61 -91 113 -168 115 -171 1 -4 -59
-94 -134 -200 -74 -107 -139 -200 -143 -206 -5 -10 17 -13 98 -13 l105 0 86
125 c47 68 90 127 94 130 5 2 49 -54 97 -125 l89 -129 93 -1 92 0 0 28 c0 19
-38 80 -130 206 -71 99 -126 184 -123 190 6 11 140 201 211 299 l34 47 -109 0
-108 0 -69 -105 c-38 -58 -70 -105 -72 -105 -2 0 -35 47 -74 105 l-70 105
-101 0 c-55 0 -99 -4 -97 -8z"/>
<path d="M3060 991 c-49 -15 -89 -41 -122 -81 -41 -48 -58 -98 -58 -173 l0
-56 33 6 c44 8 106 40 140 72 44 40 68 96 74 172 6 68 6 69 -18 68 -13 0 -35
-4 -49 -8z m20 -83 c0 -18 -9 -52 -20 -76 -16 -35 -29 -47 -72 -67 l-53 -25
-3 32 c-5 44 4 72 35 109 26 30 73 58 101 59 7 0 12 -13 12 -32z"/>
<path d="M2380 926 c0 -35 27 -105 55 -142 35 -45 116 -82 190 -86 l60 -3 -3
30 c-5 48 -46 129 -83 163 -41 39 -106 62 -171 62 -44 0 -48 -2 -48 -24z m156
-52 c40 -19 72 -60 80 -103 6 -30 5 -31 -27 -31 -52 0 -112 35 -137 79 -32 57
-29 71 14 71 20 0 51 -7 70 -16z"/>
<path d="M2325 654 c-28 -14 -59 -34 -69 -45 -19 -17 -19 -19 -3 -37 26 -29
108 -70 153 -78 54 -8 118 10 183 52 l53 36 -23 24 c-70 74 -202 96 -294 48z
m196 -37 c19 -12 34 -27 33 -32 -1 -17 -87 -55 -123 -55 -29 0 -121 42 -121
55 0 2 19 15 43 29 55 34 121 35 168 3z"/>
<path d="M3003 655 c-28 -14 -58 -34 -68 -45 -17 -19 -17 -21 1 -41 10 -12 42
-33 69 -47 89 -46 196 -31 288 41 26 21 21 33 -25 65 -88 60 -180 69 -265 27z
m184 -26 c24 -11 43 -25 43 -29 0 -14 -51 -49 -86 -59 -38 -10 -93 -1 -130 24
-22 14 -23 19 -12 32 17 21 87 53 117 53 14 0 44 -9 68 -21z"/>
<path d="M2726 649 c-35 -27 -36 -86 -3 -117 63 -59 160 9 127 88 -22 53 -77
66 -124 29z"/>
<path d="M2880 451 c0 -29 5 -73 12 -99 15 -61 85 -132 153 -155 78 -27 85
-24 85 29 0 138 -78 233 -222 269 -28 7 -28 7 -28 -44z m132 -32 c36 -26 57
-66 65 -125 l6 -47 -29 7 c-68 16 -115 73 -122 147 l-5 52 28 -7 c16 -4 41
-16 57 -27z"/>
<path d="M2552 471 c-94 -33 -150 -107 -160 -214 l-5 -60 47 7 c134 20 211
100 231 239 l6 47 -33 0 c-18 -1 -57 -9 -86 -19z m63 -68 c-14 -77 -58 -122
-134 -138 l-34 -7 7 43 c4 24 15 55 24 69 20 28 96 70 125 70 17 0 18 -5 12
-37z"/>
<path d="M2743 422 c-86 -116 -86 -228 0 -344 12 -15 24 -28 29 -28 15 0 77
106 89 152 9 37 9 59 0 95 -12 47 -74 153 -89 153 -5 0 -17 -13 -29 -28z m68
-84 c16 -31 20 -54 17 -88 -5 -46 -39 -110 -59 -110 -15 0 -49 81 -49 119 0
35 43 121 60 121 5 0 19 -19 31 -42z"/>
</g>
</svg>
