<svg xmlns="http://www.w3.org/2000/svg" xmlns:xlink="http://www.w3.org/1999/xlink" width="500" zoomAndPan="magnify" viewBox="0 0 375 374.999991" height="500" preserveAspectRatio="xMidYMid meet" version="1.0"><defs><g/><clipPath id="8d2dd1ffcd"><rect x="0" width="169" y="0" height="90"/></clipPath><clipPath id="5121712c4f"><path d="M 33.5625 0.4375 L 48.421875 0.4375 L 48.421875 31.300781 L 33.5625 31.300781 Z M 33.5625 0.4375 " clip-rule="nonzero"/></clipPath><clipPath id="49670612f4"><path d="M 48 9 L 68 9 L 68 35 L 48 35 Z M 48 9 " clip-rule="nonzero"/></clipPath><clipPath id="096d0330e7"><path d="M 61.574219 5.144531 L 73.441406 14.085938 L 54.867188 38.730469 L 43 29.785156 Z M 61.574219 5.144531 " clip-rule="nonzero"/></clipPath><clipPath id="2697d65dd1"><path d="M 61.574219 5.144531 L 73.441406 14.085938 L 54.867188 38.730469 L 43 29.785156 Z M 61.574219 5.144531 " clip-rule="nonzero"/></clipPath><clipPath id="0b3aa4e072"><path d="M 61.574219 5.144531 L 73.441406 14.085938 L 54.867188 38.730469 L 43 29.785156 Z M 61.574219 5.144531 " clip-rule="nonzero"/></clipPath><clipPath id="a095517af6"><path d="M 51.160156 33.5625 L 82.019531 33.5625 L 82.019531 48.421875 L 51.160156 48.421875 Z M 51.160156 33.5625 " clip-rule="nonzero"/></clipPath><clipPath id="5782621ad8"><path d="M 33.417969 51.011719 L 48.277344 51.011719 L 48.277344 81.871094 L 33.417969 81.871094 Z M 33.417969 51.011719 " clip-rule="nonzero"/></clipPath><clipPath id="8527b8da9b"><path d="M 48 47 L 68 47 L 68 73 L 48 73 Z M 48 47 " clip-rule="nonzero"/></clipPath><clipPath id="6f6bd674bb"><path d="M 43.203125 52.050781 L 55.09375 43.136719 L 73.605469 67.824219 L 61.71875 76.738281 Z M 43.203125 52.050781 " clip-rule="nonzero"/></clipPath><clipPath id="52584b1934"><path d="M 43.203125 52.050781 L 55.09375 43.136719 L 73.605469 67.824219 L 61.71875 76.738281 Z M 43.203125 52.050781 " clip-rule="nonzero"/></clipPath><clipPath id="e657358da7"><path d="M 43.203125 52.050781 L 55.09375 43.136719 L 73.605469 67.824219 L 61.71875 76.738281 Z M 43.203125 52.050781 " clip-rule="nonzero"/></clipPath><clipPath id="5e9c35a0a3"><path d="M 0.328125 33.5625 L 31.1875 33.5625 L 31.1875 48.421875 L 0.328125 48.421875 Z M 0.328125 33.5625 " clip-rule="nonzero"/></clipPath><clipPath id="cbfa901e1f"><path d="M 10 13 L 35 13 L 35 34 L 10 34 Z M 10 13 " clip-rule="nonzero"/></clipPath><clipPath id="a15cbbd031"><path d="M 39.46875 27.394531 L 30.070312 38.902344 L 6.167969 19.382812 L 15.566406 7.875 Z M 39.46875 27.394531 " clip-rule="nonzero"/></clipPath><clipPath id="93ba771bde"><path d="M 39.46875 27.394531 L 30.070312 38.902344 L 6.167969 19.382812 L 15.566406 7.875 Z M 39.46875 27.394531 " clip-rule="nonzero"/></clipPath><clipPath id="bbce7c871f"><path d="M 39.46875 27.394531 L 30.070312 38.902344 L 6.167969 19.382812 L 15.566406 7.875 Z M 39.46875 27.394531 " clip-rule="nonzero"/></clipPath><clipPath id="e31cbe87c6"><path d="M 11 47 L 34 47 L 34 71 L 11 71 Z M 11 47 " clip-rule="nonzero"/></clipPath><clipPath id="b9056a667e"><path d="M 27.828125 42.847656 L 38.550781 53.132812 L 17.183594 75.398438 L 6.460938 65.113281 Z M 27.828125 42.847656 " clip-rule="nonzero"/></clipPath><clipPath id="515dcb203c"><path d="M 27.828125 42.847656 L 38.550781 53.132812 L 17.183594 75.398438 L 6.460938 65.113281 Z M 27.828125 42.847656 " clip-rule="nonzero"/></clipPath><clipPath id="911ea17ebd"><path d="M 27.828125 42.847656 L 38.550781 53.132812 L 17.183594 75.398438 L 6.460938 65.113281 Z M 27.828125 42.847656 " clip-rule="nonzero"/></clipPath><clipPath id="b029fe1aec"><path d="M 34.902344 34.566406 L 47.476562 34.566406 L 47.476562 47.125 L 34.902344 47.125 Z M 34.902344 34.566406 " clip-rule="nonzero"/></clipPath><clipPath id="0ad8c97cc8"><path d="M 34.902344 40.992188 C 34.902344 42.699219 35.582031 44.339844 36.789062 45.546875 C 37.996094 46.753906 39.636719 47.433594 41.34375 47.433594 C 43.050781 47.433594 44.691406 46.753906 45.898438 45.546875 C 47.105469 44.339844 47.785156 42.699219 47.785156 40.992188 C 47.785156 39.285156 47.105469 37.644531 45.898438 36.4375 C 44.691406 35.230469 43.050781 34.550781 41.34375 34.550781 C 39.636719 34.550781 37.996094 35.230469 36.789062 36.4375 C 35.582031 37.644531 34.902344 39.285156 34.902344 40.992188 Z M 34.902344 40.992188 " clip-rule="nonzero"/></clipPath><clipPath id="ce443a3212"><path d="M 52 14 L 65 14 L 65 30 L 52 30 Z M 52 14 " clip-rule="nonzero"/></clipPath><clipPath id="ad70191d45"><path d="M 60.414062 11.542969 L 67.714844 17.046875 L 56.019531 32.5625 L 48.71875 27.058594 Z M 60.414062 11.542969 " clip-rule="nonzero"/></clipPath><clipPath id="97cfc8f1f0"><path d="M 60.414062 11.542969 L 67.714844 17.046875 L 56.019531 32.5625 L 48.71875 27.058594 Z M 60.414062 11.542969 " clip-rule="nonzero"/></clipPath><clipPath id="ee0eb0e3d0"><path d="M 36 6 L 46 6 L 46 26 L 36 26 Z M 36 6 " clip-rule="nonzero"/></clipPath><clipPath id="e8ebc4c1bc"><path d="M 46.292969 24.917969 L 37.160156 25.363281 L 36.21875 5.953125 L 45.351562 5.511719 Z M 46.292969 24.917969 " clip-rule="nonzero"/></clipPath><clipPath id="9a0937ca18"><path d="M 46.292969 24.917969 L 37.160156 25.363281 L 36.21875 5.953125 L 45.351562 5.511719 Z M 46.292969 24.917969 " clip-rule="nonzero"/></clipPath><clipPath id="be263ca5f6"><path d="M 57 36 L 77 36 L 77 46 L 57 46 Z M 57 36 " clip-rule="nonzero"/></clipPath><clipPath id="ab5eac5723"><path d="M 75.917969 35.691406 L 76.457031 44.820312 L 57.058594 45.964844 L 56.519531 36.835938 Z M 75.917969 35.691406 " clip-rule="nonzero"/></clipPath><clipPath id="64c65e333b"><path d="M 75.917969 35.691406 L 76.457031 44.820312 L 57.058594 45.964844 L 56.519531 36.835938 Z M 75.917969 35.691406 " clip-rule="nonzero"/></clipPath><clipPath id="788e855676"><path d="M 52 51 L 65 51 L 65 67 L 52 67 Z M 52 51 " clip-rule="nonzero"/></clipPath><clipPath id="032705c600"><path d="M 67.539062 64.191406 L 60.050781 69.4375 L 48.902344 53.523438 L 56.390625 48.277344 Z M 67.539062 64.191406 " clip-rule="nonzero"/></clipPath><clipPath id="4c1c5b93d7"><path d="M 67.539062 64.191406 L 60.050781 69.4375 L 48.902344 53.523438 L 56.390625 48.277344 Z M 67.539062 64.191406 " clip-rule="nonzero"/></clipPath><clipPath id="c9bee05597"><path d="M 36 56 L 46 56 L 46 76 L 36 76 Z M 36 56 " clip-rule="nonzero"/></clipPath><clipPath id="98b205b3db"><path d="M 45.378906 75.5 L 36.242188 75.144531 L 36.996094 55.730469 L 46.132812 56.082031 Z M 45.378906 75.5 " clip-rule="nonzero"/></clipPath><clipPath id="26cdec3fd3"><path d="M 45.378906 75.5 L 36.242188 75.144531 L 36.996094 55.730469 L 46.132812 56.082031 Z M 45.378906 75.5 " clip-rule="nonzero"/></clipPath><clipPath id="9829a9fe58"><path d="M 16 51 L 30 51 L 30 66 L 16 66 Z M 16 51 " clip-rule="nonzero"/></clipPath><clipPath id="8dd14fb66c"><path d="M 19.742188 68.96875 L 13.105469 62.679688 L 26.464844 48.570312 L 33.101562 54.859375 Z M 19.742188 68.96875 " clip-rule="nonzero"/></clipPath><clipPath id="f7200a2c7a"><path d="M 19.742188 68.96875 L 13.105469 62.679688 L 26.464844 48.570312 L 33.101562 54.859375 Z M 19.742188 68.96875 " clip-rule="nonzero"/></clipPath><clipPath id="9491ee32d0"><path d="M 6.121094 36.597656 L 25.550781 36.597656 L 25.550781 45.742188 L 6.121094 45.742188 Z M 6.121094 36.597656 " clip-rule="nonzero"/></clipPath><clipPath id="20ccf2c621"><path d="M 14 17 L 30 17 L 30 30 L 14 30 Z M 14 17 " clip-rule="nonzero"/></clipPath><clipPath id="25ab868743"><path d="M 11.902344 21.855469 L 17.359375 14.519531 L 32.949219 26.117188 L 27.492188 33.453125 Z M 11.902344 21.855469 " clip-rule="nonzero"/></clipPath><clipPath id="f588a08feb"><path d="M 11.902344 21.855469 L 17.359375 14.519531 L 32.949219 26.117188 L 27.492188 33.453125 Z M 11.902344 21.855469 " clip-rule="nonzero"/></clipPath><clipPath id="bafbc0cc0b"><rect x="0" width="83" y="0" height="82"/></clipPath></defs><g transform="matrix(1, 0, 0, 1, 0, 145)"><g clip-path="url(#8d2dd1ffcd)"><g fill="#ffffff" fill-opacity="1"><g transform="translate(0.451779, 64.223046)"><g><path d="M 52.78125 -57.828125 L 24.109375 -11.5625 L 50.890625 -11.5625 L 50.890625 0 L 1.125 0 L 29.71875 -46.265625 L 5.1875 -46.265625 L 5.1875 -57.828125 Z M 52.78125 -57.828125 "/></g></g></g><g fill="#ffffff" fill-opacity="1"><g transform="translate(54.348293, 64.223046)"><g><path d="M 33.578125 -57.828125 L 56.921875 0 L 42.75 0 L 38.484375 -11.5625 L 16.46875 -11.5625 L 12.203125 0 L -1.96875 0 L 21.375 -57.828125 Z M 34 -23.125 L 27.546875 -39.953125 L 27.40625 -39.953125 L 20.953125 -23.125 Z M 34 -23.125 "/></g></g></g><g fill="#ffffff" fill-opacity="1"><g transform="translate(109.296112, 64.223046)"><g><path d="M 17.390625 -35.890625 L 17.390625 0 L 4.203125 0 L 4.203125 -57.828125 L 17.390625 -57.828125 L 40.375 -21.9375 L 40.515625 -21.9375 L 40.515625 -57.828125 L 53.6875 -57.828125 L 53.6875 0 L 40.515625 0 L 17.515625 -35.890625 Z M 17.390625 -35.890625 "/></g></g></g></g></g><g transform="matrix(1, 0, 0, 1, 167, 141)"><g clip-path="url(#bafbc0cc0b)"><g clip-path="url(#5121712c4f)"><path fill="#ffffff" d="M 48.417969 15.871094 C 48.417969 24.394531 40.992188 31.304688 40.992188 31.304688 C 40.992188 31.304688 33.566406 24.394531 33.566406 15.871094 C 33.566406 7.351562 40.992188 0.441406 40.992188 0.441406 C 40.992188 0.441406 48.417969 7.351562 48.417969 15.871094 Z M 48.417969 15.871094 " fill-opacity="1" fill-rule="nonzero"/></g><g clip-path="url(#49670612f4)"><g clip-path="url(#096d0330e7)"><g clip-path="url(#2697d65dd1)"><g clip-path="url(#0b3aa4e072)"><path fill="#ffffff" d="M 64.148438 26.410156 C 59.015625 33.214844 48.929688 34.261719 48.929688 34.261719 C 48.929688 34.261719 47.160156 24.277344 52.289062 17.46875 C 57.417969 10.664062 67.507812 9.617188 67.507812 9.617188 C 67.507812 9.617188 69.277344 19.601562 64.148438 26.410156 Z M 64.148438 26.410156 " fill-opacity="1" fill-rule="nonzero"/></g></g></g></g><g clip-path="url(#a095517af6)"><path fill="#ffffff" d="M 66.585938 48.417969 C 58.0625 48.417969 51.152344 40.992188 51.152344 40.992188 C 51.152344 40.992188 58.0625 33.566406 66.585938 33.566406 C 75.109375 33.566406 82.015625 40.992188 82.015625 40.992188 C 82.015625 40.992188 75.109375 48.417969 66.585938 48.417969 Z M 66.585938 48.417969 " fill-opacity="1" fill-rule="nonzero"/></g><g clip-path="url(#5782621ad8)"><path fill="#ffffff" d="M 48.273438 66.445312 C 48.273438 74.96875 40.847656 81.878906 40.847656 81.878906 C 40.847656 81.878906 33.425781 74.96875 33.425781 66.445312 C 33.425781 57.921875 40.847656 51.015625 40.847656 51.015625 C 40.847656 51.015625 48.273438 57.921875 48.273438 66.445312 Z M 48.273438 66.445312 " fill-opacity="1" fill-rule="nonzero"/></g><g clip-path="url(#8527b8da9b)"><g clip-path="url(#6f6bd674bb)"><g clip-path="url(#52584b1934)"><g clip-path="url(#e657358da7)"><path fill="#ffffff" d="M 64.347656 55.484375 C 69.460938 62.304688 67.664062 72.285156 67.664062 72.285156 C 67.664062 72.285156 57.578125 71.214844 52.464844 64.394531 C 47.355469 57.574219 49.148438 47.59375 49.148438 47.59375 C 49.148438 47.59375 59.234375 48.667969 64.347656 55.484375 Z M 64.347656 55.484375 " fill-opacity="1" fill-rule="nonzero"/></g></g></g></g><g clip-path="url(#5e9c35a0a3)"><path fill="#ffffff" d="M 15.753906 48.417969 C 7.230469 48.417969 0.324219 40.992188 0.324219 40.992188 C 0.324219 40.992188 7.230469 33.566406 15.753906 33.566406 C 24.277344 33.566406 31.1875 40.992188 31.1875 40.992188 C 31.1875 40.992188 24.277344 48.417969 15.753906 48.417969 Z M 15.753906 48.417969 " fill-opacity="1" fill-rule="nonzero"/></g><g clip-path="url(#cbfa901e1f)"><g clip-path="url(#a15cbbd031)"><g clip-path="url(#93ba771bde)"><g clip-path="url(#bbce7c871f)"><path fill="#ffffff" d="M 18.117188 29.136719 C 11.515625 23.746094 10.863281 13.625 10.863281 13.625 C 10.863281 13.625 20.910156 12.246094 27.511719 17.636719 C 34.113281 23.027344 34.765625 33.148438 34.765625 33.148438 C 34.765625 33.148438 24.71875 34.527344 18.117188 29.136719 Z M 18.117188 29.136719 " fill-opacity="1" fill-rule="nonzero"/></g></g></g></g><g clip-path="url(#e31cbe87c6)"><g clip-path="url(#b9056a667e)"><g clip-path="url(#515dcb203c)"><g clip-path="url(#911ea17ebd)"><path fill="#ffffff" d="M 27.859375 64.265625 C 21.957031 70.414062 11.816406 70.257812 11.816406 70.257812 C 11.816406 70.257812 11.246094 60.132812 17.144531 53.984375 C 23.046875 47.835938 33.1875 47.992188 33.1875 47.992188 C 33.1875 47.992188 33.761719 58.117188 27.859375 64.265625 Z M 27.859375 64.265625 " fill-opacity="1" fill-rule="nonzero"/></g></g></g></g><g clip-path="url(#b029fe1aec)"><g clip-path="url(#0ad8c97cc8)"><path fill="#ffffff" d="M 47.464844 40.84375 C 47.464844 44.3125 44.652344 47.125 41.183594 47.125 C 37.714844 47.125 34.902344 44.3125 34.902344 40.84375 C 34.902344 37.375 37.714844 34.566406 41.183594 34.566406 C 44.652344 34.566406 47.464844 37.375 47.464844 40.84375 Z M 47.464844 40.84375 " fill-opacity="1" fill-rule="nonzero"/></g></g><g clip-path="url(#ce443a3212)"><g clip-path="url(#ad70191d45)"><g clip-path="url(#97cfc8f1f0)"><path fill="#ffffff" d="M 62.304688 24.8125 C 59.164062 28.984375 52.820312 29.503906 52.820312 29.503906 C 52.820312 29.503906 51.578125 23.265625 54.71875 19.09375 C 57.863281 14.921875 64.207031 14.402344 64.207031 14.402344 C 64.207031 14.402344 65.449219 20.640625 62.304688 24.8125 Z M 62.304688 24.8125 " fill-opacity="1" fill-rule="nonzero"/></g></g></g><g clip-path="url(#ee0eb0e3d0)"><g clip-path="url(#e8ebc4c1bc)"><g clip-path="url(#9a0937ca18)"><path fill="#ffffff" d="M 36.34375 15.933594 C 36.089844 10.714844 40.632812 6.257812 40.632812 6.257812 C 40.632812 6.257812 45.582031 10.253906 45.832031 15.472656 C 46.085938 20.691406 41.546875 25.148438 41.546875 25.148438 C 41.546875 25.148438 36.597656 21.148438 36.34375 15.933594 Z M 36.34375 15.933594 " fill-opacity="1" fill-rule="nonzero"/></g></g></g><g clip-path="url(#be263ca5f6)"><g clip-path="url(#ab5eac5723)"><g clip-path="url(#64c65e333b)"><path fill="#ffffff" d="M 67.035156 45.734375 C 61.820312 46.039062 57.316406 41.546875 57.316406 41.546875 C 57.316406 41.546875 61.261719 36.558594 66.476562 36.25 C 71.691406 35.941406 76.195312 40.433594 76.195312 40.433594 C 76.195312 40.433594 72.25 45.425781 67.035156 45.734375 Z M 67.035156 45.734375 " fill-opacity="1" fill-rule="nonzero"/></g></g></g><g clip-path="url(#788e855676)"><g clip-path="url(#032705c600)"><g clip-path="url(#4c1c5b93d7)"><path fill="#ffffff" d="M 54.328125 61.898438 C 51.332031 57.617188 52.792969 51.425781 52.792969 51.425781 C 52.792969 51.425781 59.113281 52.167969 62.109375 56.445312 C 65.109375 60.722656 63.644531 66.917969 63.644531 66.917969 C 63.644531 66.917969 57.328125 66.175781 54.328125 61.898438 Z M 54.328125 61.898438 " fill-opacity="1" fill-rule="nonzero"/></g></g></g><g clip-path="url(#c9bee05597)"><g clip-path="url(#98b205b3db)"><g clip-path="url(#26cdec3fd3)"><path fill="#ffffff" d="M 36.253906 65.679688 C 36.457031 60.460938 41.367188 56.414062 41.367188 56.414062 C 41.367188 56.414062 45.949219 60.828125 45.746094 66.046875 C 45.542969 71.265625 40.632812 75.3125 40.632812 75.3125 C 40.632812 75.3125 36.050781 70.898438 36.253906 65.679688 Z M 36.253906 65.679688 " fill-opacity="1" fill-rule="nonzero"/></g></g></g><g clip-path="url(#9829a9fe58)"><g clip-path="url(#8dd14fb66c)"><g clip-path="url(#f7200a2c7a)"><path fill="#ffffff" d="M 19.347656 55.566406 C 22.9375 51.773438 29.300781 51.964844 29.300781 51.964844 C 29.300781 51.964844 29.835938 58.308594 26.246094 62.101562 C 22.65625 65.890625 16.292969 65.699219 16.292969 65.699219 C 16.292969 65.699219 15.757812 59.359375 19.347656 55.566406 Z M 19.347656 55.566406 " fill-opacity="1" fill-rule="nonzero"/></g></g></g><g clip-path="url(#9491ee32d0)"><path fill="#ffffff" d="M 15.578125 36.242188 C 20.800781 36.242188 25.035156 40.992188 25.035156 40.992188 C 25.035156 40.992188 20.800781 45.742188 15.578125 45.742188 C 10.355469 45.742188 6.121094 40.992188 6.121094 40.992188 C 6.121094 40.992188 10.355469 36.242188 15.578125 36.242188 Z M 15.578125 36.242188 " fill-opacity="1" fill-rule="nonzero"/></g><g clip-path="url(#20ccf2c621)"><g clip-path="url(#25ab868743)"><g clip-path="url(#f588a08feb)"><path fill="#ffffff" d="M 25.160156 19.878906 C 29.351562 22.996094 29.914062 29.335938 29.914062 29.335938 C 29.914062 29.335938 23.679688 30.617188 19.492188 27.5 C 15.300781 24.382812 14.738281 18.042969 14.738281 18.042969 C 14.738281 18.042969 20.972656 16.761719 25.160156 19.878906 Z M 25.160156 19.878906 " fill-opacity="1" fill-rule="nonzero"/></g></g></g></g></g><g fill="#ffffff" fill-opacity="1"><g transform="translate(242.542957, 209.696237)"><g><path d="M 22.296875 0 L -1.96875 -57.828125 L 12.890625 -57.828125 L 27.484375 -19.84375 L 42.0625 -57.828125 L 56.921875 -57.828125 L 32.65625 0 Z M 22.296875 0 "/></g></g></g><g fill="#ffffff" fill-opacity="1"><g transform="translate(297.484161, 209.696237)"><g><path d="M 17.390625 -57.828125 L 17.390625 0 L 4.203125 0 L 4.203125 -57.828125 Z M 17.390625 -57.828125 "/></g></g></g><g fill="#ffffff" fill-opacity="1"><g transform="translate(319.068209, 209.696237)"><g><path d="M 58.3125 0 L 41.28125 0 L 27.609375 -19.703125 L 13.953125 0 L -2.390625 0 L 19.484375 -31.125 L 1.265625 -57.828125 L 16.96875 -57.828125 L 27.609375 -42.0625 L 38.265625 -57.828125 L 54.671875 -57.828125 L 35.75 -31.125 Z M 58.3125 0 "/></g></g></g></svg>